<?xml version="1.0" encoding="UTF-8"?>
<svg width="56" height="56" viewBox="0 0 56 56" fill="none" xmlns="http://www.w3.org/2000/svg">
  <rect width="56" height="56" rx="16" fill="url(#bg3)"/>
  <defs>
    <linearGradient id="bg3" x1="0" y1="0" x2="56" y2="56" gradientUnits="userSpaceOnUse">
      <stop offset="0%" stop-color="#06b6d4"/>
      <stop offset="100%" stop-color="#6366f1"/>
    </linearGradient>
  </defs>
  <line x1="14" y1="20" x2="28" y2="14" stroke="white" stroke-width="1.2" opacity="0.5"/>
  <line x1="14" y1="20" x2="28" y2="28" stroke="white" stroke-width="1.2" opacity="0.5"/>
  <line x1="14" y1="36" x2="28" y2="28" stroke="white" stroke-width="1.2" opacity="0.5"/>
  <line x1="14" y1="36" x2="28" y2="42" stroke="white" stroke-width="1.2" opacity="0.5"/>
  <line x1="28" y1="14" x2="42" y2="20" stroke="white" stroke-width="1.2" opacity="0.5"/>
  <line x1="28" y1="28" x2="42" y2="20" stroke="white" stroke-width="1.2" opacity="0.5"/>
  <line x1="28" y1="28" x2="42" y2="36" stroke="white" stroke-width="1.2" opacity="0.5"/>
  <line x1="28" y1="42" x2="42" y2="36" stroke="white" stroke-width="1.2" opacity="0.5"/>
  <circle cx="14" cy="20" r="3" fill="white"/>
  <circle cx="14" cy="36" r="3" fill="white"/>
  <circle cx="28" cy="14" r="3" fill="white"/>
  <circle cx="28" cy="28" r="4" fill="white"/>
  <circle cx="28" cy="42" r="3" fill="white"/>
  <circle cx="42" cy="20" r="3" fill="white"/>
  <circle cx="42" cy="36" r="3" fill="white"/>
</svg>
